M48
; DRILL file {KiCad 9.0.7} date 2026-03-15T19:59:04-0400
; FORMAT={-:-/ absolute / metric / decimal}
; #@! TF.CreationDate,2026-03-15T19:59:04-04:00
; #@! TF.GenerationSoftware,Kicad,Pcbnew,9.0.7
; #@! TF.FileFunction,Plated,1,2,PTH
FMAT,2
METRIC
; #@! TA.AperFunction,Plated,PTH,ComponentDrill
T1C0.800
; #@! TA.AperFunction,Plated,PTH,ComponentDrill
T2C0.900
; #@! TA.AperFunction,Plated,PTH,ComponentDrill
T3C1.000
; #@! TA.AperFunction,Plated,PTH,ComponentDrill
T4C1.092
%
G90
G05
T1
X102.46Y-157.46
X102.46Y-162.54
X105.0Y-160.0
X120.0Y-184.92
X120.0Y-190.0
X122.54Y-187.46
X157.46Y-184.92
X157.46Y-190.0
X160.0Y-187.46
X182.38Y-100.0
X187.38Y-185.0
X190.0Y-100.0
X195.0Y-185.0
X212.38Y-185.0
X220.0Y-185.0
X247.38Y-185.0
X255.0Y-185.0
T2
X185.0Y-85.0
X187.54Y-85.0
T3
X163.89Y-123.55
X163.89Y-151.49
X166.43Y-123.55
X166.43Y-151.49
X168.97Y-123.55
X168.97Y-151.49
X171.51Y-123.55
X171.51Y-151.49
X174.05Y-123.55
X174.05Y-151.49
X176.59Y-123.55
X176.59Y-151.49
X179.13Y-123.55
X179.13Y-151.49
X181.67Y-123.55
X181.67Y-151.49
X184.21Y-123.55
X184.21Y-151.49
X186.75Y-123.55
X186.75Y-151.49
X189.29Y-123.55
X189.29Y-151.49
X191.83Y-123.55
X191.83Y-151.49
X194.37Y-123.55
X194.37Y-151.49
X196.91Y-123.55
X196.91Y-151.49
X199.45Y-123.55
X199.45Y-151.49
X201.99Y-123.55
X201.99Y-151.49
X269.84Y-115.0
X269.84Y-127.7
X272.38Y-115.0
X272.38Y-127.7
X274.92Y-115.0
X274.92Y-127.7
X277.46Y-115.0
X277.46Y-127.7
X280.0Y-115.0
X280.0Y-127.7
X282.54Y-115.0
X282.54Y-127.7
T4
X184.92Y-200.0
X190.0Y-200.0
X214.92Y-200.0
X220.0Y-200.0
X249.92Y-200.0
X255.0Y-200.0
M30
