%TF.GenerationSoftware,KiCad,Pcbnew,9.0.7*%
%TF.CreationDate,2026-03-15T19:56:45-04:00*%
%TF.ProjectId,projet,70726f6a-6574-42e6-9b69-6361645f7063,rev?*%
%TF.SameCoordinates,Original*%
%TF.FileFunction,Legend,Top*%
%TF.FilePolarity,Positive*%
%FSLAX46Y46*%
G04 Gerber Fmt 4.6, Leading zero omitted, Abs format (unit mm)*
G04 Created by KiCad (PCBNEW 9.0.7) date 2026-03-15 19:56:45*
%MOMM*%
%LPD*%
G01*
G04 APERTURE LIST*
%ADD10C,0.150000*%
%ADD11C,0.120000*%
%ADD12C,0.152400*%
G04 APERTURE END LIST*
D10*
X119389761Y-181899819D02*
X119056428Y-181423628D01*
X118818333Y-181899819D02*
X118818333Y-180899819D01*
X118818333Y-180899819D02*
X119199285Y-180899819D01*
X119199285Y-180899819D02*
X119294523Y-180947438D01*
X119294523Y-180947438D02*
X119342142Y-180995057D01*
X119342142Y-180995057D02*
X119389761Y-181090295D01*
X119389761Y-181090295D02*
X119389761Y-181233152D01*
X119389761Y-181233152D02*
X119342142Y-181328390D01*
X119342142Y-181328390D02*
X119294523Y-181376009D01*
X119294523Y-181376009D02*
X119199285Y-181423628D01*
X119199285Y-181423628D02*
X118818333Y-181423628D01*
X119675476Y-180899819D02*
X120008809Y-181899819D01*
X120008809Y-181899819D02*
X120342142Y-180899819D01*
X120627857Y-180995057D02*
X120675476Y-180947438D01*
X120675476Y-180947438D02*
X120770714Y-180899819D01*
X120770714Y-180899819D02*
X121008809Y-180899819D01*
X121008809Y-180899819D02*
X121104047Y-180947438D01*
X121104047Y-180947438D02*
X121151666Y-180995057D01*
X121151666Y-180995057D02*
X121199285Y-181090295D01*
X121199285Y-181090295D02*
X121199285Y-181185533D01*
X121199285Y-181185533D02*
X121151666Y-181328390D01*
X121151666Y-181328390D02*
X120580238Y-181899819D01*
X120580238Y-181899819D02*
X121199285Y-181899819D01*
X186126667Y-200407200D02*
X186269524Y-200454819D01*
X186269524Y-200454819D02*
X186507619Y-200454819D01*
X186507619Y-200454819D02*
X186602857Y-200407200D01*
X186602857Y-200407200D02*
X186650476Y-200359580D01*
X186650476Y-200359580D02*
X186698095Y-200264342D01*
X186698095Y-200264342D02*
X186698095Y-200169104D01*
X186698095Y-200169104D02*
X186650476Y-200073866D01*
X186650476Y-200073866D02*
X186602857Y-200026247D01*
X186602857Y-200026247D02*
X186507619Y-199978628D01*
X186507619Y-199978628D02*
X186317143Y-199931009D01*
X186317143Y-199931009D02*
X186221905Y-199883390D01*
X186221905Y-199883390D02*
X186174286Y-199835771D01*
X186174286Y-199835771D02*
X186126667Y-199740533D01*
X186126667Y-199740533D02*
X186126667Y-199645295D01*
X186126667Y-199645295D02*
X186174286Y-199550057D01*
X186174286Y-199550057D02*
X186221905Y-199502438D01*
X186221905Y-199502438D02*
X186317143Y-199454819D01*
X186317143Y-199454819D02*
X186555238Y-199454819D01*
X186555238Y-199454819D02*
X186698095Y-199502438D01*
X187031429Y-199454819D02*
X187269524Y-200454819D01*
X187269524Y-200454819D02*
X187460000Y-199740533D01*
X187460000Y-199740533D02*
X187650476Y-200454819D01*
X187650476Y-200454819D02*
X187888572Y-199454819D01*
X188174286Y-199454819D02*
X188793333Y-199454819D01*
X188793333Y-199454819D02*
X188460000Y-199835771D01*
X188460000Y-199835771D02*
X188602857Y-199835771D01*
X188602857Y-199835771D02*
X188698095Y-199883390D01*
X188698095Y-199883390D02*
X188745714Y-199931009D01*
X188745714Y-199931009D02*
X188793333Y-200026247D01*
X188793333Y-200026247D02*
X188793333Y-200264342D01*
X188793333Y-200264342D02*
X188745714Y-200359580D01*
X188745714Y-200359580D02*
X188698095Y-200407200D01*
X188698095Y-200407200D02*
X188602857Y-200454819D01*
X188602857Y-200454819D02*
X188317143Y-200454819D01*
X188317143Y-200454819D02*
X188221905Y-200407200D01*
X188221905Y-200407200D02*
X188174286Y-200359580D01*
X156849761Y-181899819D02*
X156516428Y-181423628D01*
X156278333Y-181899819D02*
X156278333Y-180899819D01*
X156278333Y-180899819D02*
X156659285Y-180899819D01*
X156659285Y-180899819D02*
X156754523Y-180947438D01*
X156754523Y-180947438D02*
X156802142Y-180995057D01*
X156802142Y-180995057D02*
X156849761Y-181090295D01*
X156849761Y-181090295D02*
X156849761Y-181233152D01*
X156849761Y-181233152D02*
X156802142Y-181328390D01*
X156802142Y-181328390D02*
X156754523Y-181376009D01*
X156754523Y-181376009D02*
X156659285Y-181423628D01*
X156659285Y-181423628D02*
X156278333Y-181423628D01*
X157135476Y-180899819D02*
X157468809Y-181899819D01*
X157468809Y-181899819D02*
X157802142Y-180899819D01*
X158659285Y-181899819D02*
X158087857Y-181899819D01*
X158373571Y-181899819D02*
X158373571Y-180899819D01*
X158373571Y-180899819D02*
X158278333Y-181042676D01*
X158278333Y-181042676D02*
X158183095Y-181137914D01*
X158183095Y-181137914D02*
X158087857Y-181185533D01*
X101849761Y-154439819D02*
X101516428Y-153963628D01*
X101278333Y-154439819D02*
X101278333Y-153439819D01*
X101278333Y-153439819D02*
X101659285Y-153439819D01*
X101659285Y-153439819D02*
X101754523Y-153487438D01*
X101754523Y-153487438D02*
X101802142Y-153535057D01*
X101802142Y-153535057D02*
X101849761Y-153630295D01*
X101849761Y-153630295D02*
X101849761Y-153773152D01*
X101849761Y-153773152D02*
X101802142Y-153868390D01*
X101802142Y-153868390D02*
X101754523Y-153916009D01*
X101754523Y-153916009D02*
X101659285Y-153963628D01*
X101659285Y-153963628D02*
X101278333Y-153963628D01*
X102135476Y-153439819D02*
X102468809Y-154439819D01*
X102468809Y-154439819D02*
X102802142Y-153439819D01*
X103040238Y-153439819D02*
X103659285Y-153439819D01*
X103659285Y-153439819D02*
X103325952Y-153820771D01*
X103325952Y-153820771D02*
X103468809Y-153820771D01*
X103468809Y-153820771D02*
X103564047Y-153868390D01*
X103564047Y-153868390D02*
X103611666Y-153916009D01*
X103611666Y-153916009D02*
X103659285Y-154011247D01*
X103659285Y-154011247D02*
X103659285Y-154249342D01*
X103659285Y-154249342D02*
X103611666Y-154344580D01*
X103611666Y-154344580D02*
X103564047Y-154392200D01*
X103564047Y-154392200D02*
X103468809Y-154439819D01*
X103468809Y-154439819D02*
X103183095Y-154439819D01*
X103183095Y-154439819D02*
X103087857Y-154392200D01*
X103087857Y-154392200D02*
X103040238Y-154344580D01*
X128394819Y-138281904D02*
X129204342Y-138281904D01*
X129204342Y-138281904D02*
X129299580Y-138234285D01*
X129299580Y-138234285D02*
X129347200Y-138186666D01*
X129347200Y-138186666D02*
X129394819Y-138091428D01*
X129394819Y-138091428D02*
X129394819Y-137900952D01*
X129394819Y-137900952D02*
X129347200Y-137805714D01*
X129347200Y-137805714D02*
X129299580Y-137758095D01*
X129299580Y-137758095D02*
X129204342Y-137710476D01*
X129204342Y-137710476D02*
X128394819Y-137710476D01*
X129394819Y-136710476D02*
X129394819Y-137281904D01*
X129394819Y-136996190D02*
X128394819Y-136996190D01*
X128394819Y-136996190D02*
X128537676Y-137091428D01*
X128537676Y-137091428D02*
X128632914Y-137186666D01*
X128632914Y-137186666D02*
X128680533Y-137281904D01*
X275428095Y-130804819D02*
X275428095Y-131614342D01*
X275428095Y-131614342D02*
X275475714Y-131709580D01*
X275475714Y-131709580D02*
X275523333Y-131757200D01*
X275523333Y-131757200D02*
X275618571Y-131804819D01*
X275618571Y-131804819D02*
X275809047Y-131804819D01*
X275809047Y-131804819D02*
X275904285Y-131757200D01*
X275904285Y-131757200D02*
X275951904Y-131709580D01*
X275951904Y-131709580D02*
X275999523Y-131614342D01*
X275999523Y-131614342D02*
X275999523Y-130804819D01*
X276428095Y-130900057D02*
X276475714Y-130852438D01*
X276475714Y-130852438D02*
X276570952Y-130804819D01*
X276570952Y-130804819D02*
X276809047Y-130804819D01*
X276809047Y-130804819D02*
X276904285Y-130852438D01*
X276904285Y-130852438D02*
X276951904Y-130900057D01*
X276951904Y-130900057D02*
X276999523Y-130995295D01*
X276999523Y-130995295D02*
X276999523Y-131090533D01*
X276999523Y-131090533D02*
X276951904Y-131233390D01*
X276951904Y-131233390D02*
X276380476Y-131804819D01*
X276380476Y-131804819D02*
X276999523Y-131804819D01*
X216126667Y-200407200D02*
X216269524Y-200454819D01*
X216269524Y-200454819D02*
X216507619Y-200454819D01*
X216507619Y-200454819D02*
X216602857Y-200407200D01*
X216602857Y-200407200D02*
X216650476Y-200359580D01*
X216650476Y-200359580D02*
X216698095Y-200264342D01*
X216698095Y-200264342D02*
X216698095Y-200169104D01*
X216698095Y-200169104D02*
X216650476Y-200073866D01*
X216650476Y-200073866D02*
X216602857Y-200026247D01*
X216602857Y-200026247D02*
X216507619Y-199978628D01*
X216507619Y-199978628D02*
X216317143Y-199931009D01*
X216317143Y-199931009D02*
X216221905Y-199883390D01*
X216221905Y-199883390D02*
X216174286Y-199835771D01*
X216174286Y-199835771D02*
X216126667Y-199740533D01*
X216126667Y-199740533D02*
X216126667Y-199645295D01*
X216126667Y-199645295D02*
X216174286Y-199550057D01*
X216174286Y-199550057D02*
X216221905Y-199502438D01*
X216221905Y-199502438D02*
X216317143Y-199454819D01*
X216317143Y-199454819D02*
X216555238Y-199454819D01*
X216555238Y-199454819D02*
X216698095Y-199502438D01*
X217031429Y-199454819D02*
X217269524Y-200454819D01*
X217269524Y-200454819D02*
X217460000Y-199740533D01*
X217460000Y-199740533D02*
X217650476Y-200454819D01*
X217650476Y-200454819D02*
X217888572Y-199454819D01*
X218221905Y-199550057D02*
X218269524Y-199502438D01*
X218269524Y-199502438D02*
X218364762Y-199454819D01*
X218364762Y-199454819D02*
X218602857Y-199454819D01*
X218602857Y-199454819D02*
X218698095Y-199502438D01*
X218698095Y-199502438D02*
X218745714Y-199550057D01*
X218745714Y-199550057D02*
X218793333Y-199645295D01*
X218793333Y-199645295D02*
X218793333Y-199740533D01*
X218793333Y-199740533D02*
X218745714Y-199883390D01*
X218745714Y-199883390D02*
X218174286Y-200454819D01*
X218174286Y-200454819D02*
X218793333Y-200454819D01*
X251126667Y-200407200D02*
X251269524Y-200454819D01*
X251269524Y-200454819D02*
X251507619Y-200454819D01*
X251507619Y-200454819D02*
X251602857Y-200407200D01*
X251602857Y-200407200D02*
X251650476Y-200359580D01*
X251650476Y-200359580D02*
X251698095Y-200264342D01*
X251698095Y-200264342D02*
X251698095Y-200169104D01*
X251698095Y-200169104D02*
X251650476Y-200073866D01*
X251650476Y-200073866D02*
X251602857Y-200026247D01*
X251602857Y-200026247D02*
X251507619Y-199978628D01*
X251507619Y-199978628D02*
X251317143Y-199931009D01*
X251317143Y-199931009D02*
X251221905Y-199883390D01*
X251221905Y-199883390D02*
X251174286Y-199835771D01*
X251174286Y-199835771D02*
X251126667Y-199740533D01*
X251126667Y-199740533D02*
X251126667Y-199645295D01*
X251126667Y-199645295D02*
X251174286Y-199550057D01*
X251174286Y-199550057D02*
X251221905Y-199502438D01*
X251221905Y-199502438D02*
X251317143Y-199454819D01*
X251317143Y-199454819D02*
X251555238Y-199454819D01*
X251555238Y-199454819D02*
X251698095Y-199502438D01*
X252031429Y-199454819D02*
X252269524Y-200454819D01*
X252269524Y-200454819D02*
X252460000Y-199740533D01*
X252460000Y-199740533D02*
X252650476Y-200454819D01*
X252650476Y-200454819D02*
X252888572Y-199454819D01*
X253793333Y-200454819D02*
X253221905Y-200454819D01*
X253507619Y-200454819D02*
X253507619Y-199454819D01*
X253507619Y-199454819D02*
X253412381Y-199597676D01*
X253412381Y-199597676D02*
X253317143Y-199692914D01*
X253317143Y-199692914D02*
X253221905Y-199740533D01*
X186023333Y-98084819D02*
X185690000Y-97608628D01*
X185451905Y-98084819D02*
X185451905Y-97084819D01*
X185451905Y-97084819D02*
X185832857Y-97084819D01*
X185832857Y-97084819D02*
X185928095Y-97132438D01*
X185928095Y-97132438D02*
X185975714Y-97180057D01*
X185975714Y-97180057D02*
X186023333Y-97275295D01*
X186023333Y-97275295D02*
X186023333Y-97418152D01*
X186023333Y-97418152D02*
X185975714Y-97513390D01*
X185975714Y-97513390D02*
X185928095Y-97561009D01*
X185928095Y-97561009D02*
X185832857Y-97608628D01*
X185832857Y-97608628D02*
X185451905Y-97608628D01*
X186880476Y-97418152D02*
X186880476Y-98084819D01*
X186642381Y-97037200D02*
X186404286Y-97751485D01*
X186404286Y-97751485D02*
X187023333Y-97751485D01*
X251023333Y-183084819D02*
X250690000Y-182608628D01*
X250451905Y-183084819D02*
X250451905Y-182084819D01*
X250451905Y-182084819D02*
X250832857Y-182084819D01*
X250832857Y-182084819D02*
X250928095Y-182132438D01*
X250928095Y-182132438D02*
X250975714Y-182180057D01*
X250975714Y-182180057D02*
X251023333Y-182275295D01*
X251023333Y-182275295D02*
X251023333Y-182418152D01*
X251023333Y-182418152D02*
X250975714Y-182513390D01*
X250975714Y-182513390D02*
X250928095Y-182561009D01*
X250928095Y-182561009D02*
X250832857Y-182608628D01*
X250832857Y-182608628D02*
X250451905Y-182608628D01*
X251356667Y-182084819D02*
X251975714Y-182084819D01*
X251975714Y-182084819D02*
X251642381Y-182465771D01*
X251642381Y-182465771D02*
X251785238Y-182465771D01*
X251785238Y-182465771D02*
X251880476Y-182513390D01*
X251880476Y-182513390D02*
X251928095Y-182561009D01*
X251928095Y-182561009D02*
X251975714Y-182656247D01*
X251975714Y-182656247D02*
X251975714Y-182894342D01*
X251975714Y-182894342D02*
X251928095Y-182989580D01*
X251928095Y-182989580D02*
X251880476Y-183037200D01*
X251880476Y-183037200D02*
X251785238Y-183084819D01*
X251785238Y-183084819D02*
X251499524Y-183084819D01*
X251499524Y-183084819D02*
X251404286Y-183037200D01*
X251404286Y-183037200D02*
X251356667Y-182989580D01*
X216023333Y-183084819D02*
X215690000Y-182608628D01*
X215451905Y-183084819D02*
X215451905Y-182084819D01*
X215451905Y-182084819D02*
X215832857Y-182084819D01*
X215832857Y-182084819D02*
X215928095Y-182132438D01*
X215928095Y-182132438D02*
X215975714Y-182180057D01*
X215975714Y-182180057D02*
X216023333Y-182275295D01*
X216023333Y-182275295D02*
X216023333Y-182418152D01*
X216023333Y-182418152D02*
X215975714Y-182513390D01*
X215975714Y-182513390D02*
X215928095Y-182561009D01*
X215928095Y-182561009D02*
X215832857Y-182608628D01*
X215832857Y-182608628D02*
X215451905Y-182608628D01*
X216404286Y-182180057D02*
X216451905Y-182132438D01*
X216451905Y-182132438D02*
X216547143Y-182084819D01*
X216547143Y-182084819D02*
X216785238Y-182084819D01*
X216785238Y-182084819D02*
X216880476Y-182132438D01*
X216880476Y-182132438D02*
X216928095Y-182180057D01*
X216928095Y-182180057D02*
X216975714Y-182275295D01*
X216975714Y-182275295D02*
X216975714Y-182370533D01*
X216975714Y-182370533D02*
X216928095Y-182513390D01*
X216928095Y-182513390D02*
X216356667Y-183084819D01*
X216356667Y-183084819D02*
X216975714Y-183084819D01*
X191023333Y-183084819D02*
X190690000Y-182608628D01*
X190451905Y-183084819D02*
X190451905Y-182084819D01*
X190451905Y-182084819D02*
X190832857Y-182084819D01*
X190832857Y-182084819D02*
X190928095Y-182132438D01*
X190928095Y-182132438D02*
X190975714Y-182180057D01*
X190975714Y-182180057D02*
X191023333Y-182275295D01*
X191023333Y-182275295D02*
X191023333Y-182418152D01*
X191023333Y-182418152D02*
X190975714Y-182513390D01*
X190975714Y-182513390D02*
X190928095Y-182561009D01*
X190928095Y-182561009D02*
X190832857Y-182608628D01*
X190832857Y-182608628D02*
X190451905Y-182608628D01*
X191975714Y-183084819D02*
X191404286Y-183084819D01*
X191690000Y-183084819D02*
X191690000Y-182084819D01*
X191690000Y-182084819D02*
X191594762Y-182227676D01*
X191594762Y-182227676D02*
X191499524Y-182322914D01*
X191499524Y-182322914D02*
X191404286Y-182370533D01*
X185531905Y-81494819D02*
X185531905Y-80494819D01*
X185531905Y-80494819D02*
X185770000Y-80494819D01*
X185770000Y-80494819D02*
X185912857Y-80542438D01*
X185912857Y-80542438D02*
X186008095Y-80637676D01*
X186008095Y-80637676D02*
X186055714Y-80732914D01*
X186055714Y-80732914D02*
X186103333Y-80923390D01*
X186103333Y-80923390D02*
X186103333Y-81066247D01*
X186103333Y-81066247D02*
X186055714Y-81256723D01*
X186055714Y-81256723D02*
X186008095Y-81351961D01*
X186008095Y-81351961D02*
X185912857Y-81447200D01*
X185912857Y-81447200D02*
X185770000Y-81494819D01*
X185770000Y-81494819D02*
X185531905Y-81494819D01*
X187055714Y-81494819D02*
X186484286Y-81494819D01*
X186770000Y-81494819D02*
X186770000Y-80494819D01*
X186770000Y-80494819D02*
X186674762Y-80637676D01*
X186674762Y-80637676D02*
X186579524Y-80732914D01*
X186579524Y-80732914D02*
X186484286Y-80780533D01*
D11*
%TO.C,RV2*%
X124860000Y-192335000D02*
X115110000Y-192335000D01*
X124860000Y-182585000D02*
X124860000Y-192335000D01*
X115110000Y-192335000D02*
X115110000Y-182585000D01*
X115110000Y-182585000D02*
X124860000Y-182585000D01*
D12*
%TO.C,SW3*%
X183230900Y-195770900D02*
X183230900Y-204229100D01*
X191689100Y-195770900D02*
X183230900Y-195770900D01*
X191689100Y-204229100D02*
X191689100Y-195770900D01*
X183230900Y-204229100D02*
X191689100Y-204229100D01*
X181656100Y-200000000D02*
G75*
G02*
X181249700Y-200000000I-203200J0D01*
G01*
X181249700Y-200000000D02*
G75*
G02*
X181656100Y-200000000I203200J0D01*
G01*
D11*
%TO.C,RV1*%
X162320000Y-192335000D02*
X152570000Y-192335000D01*
X162320000Y-182585000D02*
X162320000Y-192335000D01*
X152570000Y-192335000D02*
X152570000Y-182585000D01*
X152570000Y-182585000D02*
X162320000Y-182585000D01*
%TO.C,RV3*%
X107320000Y-164875000D02*
X97570000Y-164875000D01*
X107320000Y-155125000D02*
X107320000Y-164875000D01*
X97570000Y-164875000D02*
X97570000Y-155125000D01*
X97570000Y-155125000D02*
X107320000Y-155125000D01*
%TO.C,U1*%
X130145000Y-153965000D02*
X130145000Y-121075000D01*
X235735000Y-153965000D02*
X130145000Y-153965000D01*
X130145000Y-121075000D02*
X235735000Y-121075000D01*
X235735000Y-121075000D02*
X235735000Y-153965000D01*
X162940000Y-150020000D02*
G75*
G02*
X160940000Y-150020000I-1000000J0D01*
G01*
X160940000Y-150020000D02*
G75*
G02*
X162940000Y-150020000I1000000J0D01*
G01*
%TO.C,U2*%
X284890000Y-128350000D02*
G75*
G02*
X283490000Y-128350000I-700000J0D01*
G01*
X283490000Y-128350000D02*
G75*
G02*
X284890000Y-128350000I700000J0D01*
G01*
X266190000Y-113350000D02*
X286190000Y-113350000D01*
X266190000Y-129350000D02*
X266190000Y-113350000D01*
X286190000Y-113350000D02*
X286190000Y-129350000D01*
X286190000Y-129350000D02*
X266190000Y-129350000D01*
D12*
%TO.C,SW2*%
X211656100Y-200000000D02*
G75*
G02*
X211249700Y-200000000I-203200J0D01*
G01*
X211249700Y-200000000D02*
G75*
G02*
X211656100Y-200000000I203200J0D01*
G01*
X213230900Y-204229100D02*
X221689100Y-204229100D01*
X221689100Y-204229100D02*
X221689100Y-195770900D01*
X221689100Y-195770900D02*
X213230900Y-195770900D01*
X213230900Y-195770900D02*
X213230900Y-204229100D01*
%TO.C,SW1*%
X246656100Y-200000000D02*
G75*
G02*
X246249700Y-200000000I-203200J0D01*
G01*
X246249700Y-200000000D02*
G75*
G02*
X246656100Y-200000000I203200J0D01*
G01*
X248230900Y-204229100D02*
X256689100Y-204229100D01*
X256689100Y-204229100D02*
X256689100Y-195770900D01*
X256689100Y-195770900D02*
X248230900Y-195770900D01*
X248230900Y-195770900D02*
X248230900Y-204229100D01*
D11*
%TO.C,R4*%
X182920000Y-98630000D02*
X189460000Y-98630000D01*
X182920000Y-98960000D02*
X182920000Y-98630000D01*
X182920000Y-101040000D02*
X182920000Y-101370000D01*
X182920000Y-101370000D02*
X189460000Y-101370000D01*
X189460000Y-98630000D02*
X189460000Y-98960000D01*
X189460000Y-101370000D02*
X189460000Y-101040000D01*
%TO.C,R3*%
X247920000Y-183630000D02*
X254460000Y-183630000D01*
X247920000Y-183960000D02*
X247920000Y-183630000D01*
X247920000Y-186040000D02*
X247920000Y-186370000D01*
X247920000Y-186370000D02*
X254460000Y-186370000D01*
X254460000Y-183630000D02*
X254460000Y-183960000D01*
X254460000Y-186370000D02*
X254460000Y-186040000D01*
%TO.C,R2*%
X212920000Y-183630000D02*
X219460000Y-183630000D01*
X212920000Y-183960000D02*
X212920000Y-183630000D01*
X212920000Y-186040000D02*
X212920000Y-186370000D01*
X212920000Y-186370000D02*
X219460000Y-186370000D01*
X219460000Y-183630000D02*
X219460000Y-183960000D01*
X219460000Y-186370000D02*
X219460000Y-186040000D01*
%TO.C,R1*%
X187920000Y-183630000D02*
X194460000Y-183630000D01*
X187920000Y-183960000D02*
X187920000Y-183630000D01*
X187920000Y-186040000D02*
X187920000Y-186370000D01*
X187920000Y-186370000D02*
X194460000Y-186370000D01*
X194460000Y-183630000D02*
X194460000Y-183960000D01*
X194460000Y-186370000D02*
X194460000Y-186040000D01*
%TO.C,D1*%
X183710000Y-83455000D02*
X183710000Y-86545000D01*
X183710000Y-83455170D02*
G75*
G02*
X189260000Y-85000000I2560000J-1544830D01*
G01*
X189260000Y-85000000D02*
G75*
G02*
X183710000Y-86544830I-2990000J0D01*
G01*
X188770000Y-85000000D02*
G75*
G02*
X183770000Y-85000000I-2500000J0D01*
G01*
X183770000Y-85000000D02*
G75*
G02*
X188770000Y-85000000I2500000J0D01*
G01*
%TD*%
M02*
