%TF.GenerationSoftware,KiCad,Pcbnew,9.0.7*%
%TF.CreationDate,2026-03-15T19:56:45-04:00*%
%TF.ProjectId,projet,70726f6a-6574-42e6-9b69-6361645f7063,rev?*%
%TF.SameCoordinates,Original*%
%TF.FileFunction,Soldermask,Bot*%
%TF.FilePolarity,Negative*%
%FSLAX46Y46*%
G04 Gerber Fmt 4.6, Leading zero omitted, Abs format (unit mm)*
G04 Created by KiCad (PCBNEW 9.0.7) date 2026-03-15 19:56:45*
%MOMM*%
%LPD*%
G01*
G04 APERTURE LIST*
%ADD10C,1.440000*%
%ADD11C,1.600200*%
%ADD12R,1.600200X1.600200*%
%ADD13R,1.700000X1.700000*%
%ADD14C,1.700000*%
%ADD15C,2.600000*%
%ADD16C,1.600000*%
%ADD17R,1.800000X1.800000*%
%ADD18C,1.800000*%
G04 APERTURE END LIST*
D10*
%TO.C,RV2*%
X120000000Y-184920000D03*
X122540000Y-187460000D03*
X120000000Y-190000000D03*
%TD*%
D11*
%TO.C,SW3*%
X190000000Y-200000000D03*
D12*
X184920000Y-200000000D03*
%TD*%
D10*
%TO.C,RV1*%
X157460000Y-184920000D03*
X160000000Y-187460000D03*
X157460000Y-190000000D03*
%TD*%
%TO.C,RV3*%
X102460000Y-157460000D03*
X105000000Y-160000000D03*
X102460000Y-162540000D03*
%TD*%
D13*
%TO.C,U1*%
X163890000Y-151490000D03*
D14*
X166430000Y-151490000D03*
X168970000Y-151490000D03*
X171510000Y-151490000D03*
X174050000Y-151490000D03*
X176590000Y-151490000D03*
X179130000Y-151490000D03*
X181670000Y-151490000D03*
X184210000Y-151490000D03*
X186750000Y-151490000D03*
X189290000Y-151490000D03*
X191830000Y-151490000D03*
X194370000Y-151490000D03*
X196910000Y-151490000D03*
X199450000Y-151490000D03*
X201990000Y-151490000D03*
X201990000Y-123550000D03*
X199450000Y-123550000D03*
X196910000Y-123550000D03*
X194370000Y-123550000D03*
X191830000Y-123550000D03*
X189290000Y-123550000D03*
X186750000Y-123550000D03*
X184210000Y-123550000D03*
X181670000Y-123550000D03*
X179130000Y-123550000D03*
X176590000Y-123550000D03*
X174050000Y-123550000D03*
X171510000Y-123550000D03*
X168970000Y-123550000D03*
X166430000Y-123550000D03*
X163890000Y-123550000D03*
D15*
X132410000Y-151685000D03*
X132410000Y-123355000D03*
X233470000Y-151685000D03*
X233470000Y-123355000D03*
%TD*%
D14*
%TO.C,U2*%
X282540000Y-115000000D03*
X280000000Y-115000000D03*
X277460000Y-115000000D03*
X274920000Y-115000000D03*
X272380000Y-115000000D03*
X269840000Y-115000000D03*
X269840000Y-127700000D03*
X272380000Y-127700000D03*
X274920000Y-127700000D03*
X277460000Y-127700000D03*
X280000000Y-127700000D03*
D13*
X282540000Y-127700000D03*
%TD*%
D12*
%TO.C,SW2*%
X214920000Y-200000000D03*
D11*
X220000000Y-200000000D03*
%TD*%
D12*
%TO.C,SW1*%
X249920000Y-200000000D03*
D11*
X255000000Y-200000000D03*
%TD*%
D16*
%TO.C,R4*%
X182380000Y-100000000D03*
X190000000Y-100000000D03*
%TD*%
%TO.C,R3*%
X247380000Y-185000000D03*
X255000000Y-185000000D03*
%TD*%
%TO.C,R2*%
X212380000Y-185000000D03*
X220000000Y-185000000D03*
%TD*%
%TO.C,R1*%
X187380000Y-185000000D03*
X195000000Y-185000000D03*
%TD*%
D17*
%TO.C,D1*%
X185000000Y-85000000D03*
D18*
X187540000Y-85000000D03*
%TD*%
M02*
